Coordinates
version=1
nRows=27
nColumns=13
inDegrees=yes

Units are S.I. units (second, meters, Newtons, ...)
If the header above contains a line with 'inDegrees', this indicates whether rotational values are in degrees (yes) or radians (no).

endheader
time	bJoint_3	seatpos	hipangle	kneeangle	footangle	lbackangle	uarmleft_out	uarmleft_trn	uarmleft_up	uarmright_out	uarmright_trn	uarmright_up
      3.48500000	      0.00000000	     -0.00791612	     89.51138612	     12.39939382	     11.91077994	    -29.13767734	     46.56159663	     14.71406485	      0.00000000	     50.36412549	     14.54197527	     -0.00000000
      3.49000000	      0.00000000	     -0.00897355	     88.89490322	     13.55306909	     12.44797231	    -28.77464522	     46.05846341	     15.33865633	      0.00000000	     49.86826467	     14.96969742	     -0.00000000
      3.49500000	      0.00000000	     -0.01004745	     88.31865715	     14.63235187	     12.95100902	    -28.41323998	     45.55195095	     15.76408236	      0.00000000	     49.36900291	     15.59857075	     -0.00000000
      3.50000000	      0.00000000	     -0.01112755	     87.77931338	     15.64330558	     13.42261896	    -27.98375419	     45.27897449	     16.18695947	      0.00000000	     48.93361113	     16.05538325	     -0.00000000
      3.50500000	      0.00000000	     -0.01171523	     87.50009126	     16.16698072	     13.66707198	    -27.56554138	     44.75450958	     16.61565043	      0.00000000	     48.41673350	     16.48803304	     -0.00000000
      3.51000000	      0.00000000	     -0.01284506	     86.98735757	     17.12912681	     14.11648438	    -27.19759249	     44.24726521	     17.24700690	      0.00000000	     48.08887542	     16.89011056	     -0.00000000
      3.51500000	      0.00000000	     -0.01389974	     86.53358736	     17.98119181	     14.51477918	    -26.83398609	     43.72268841	     17.67648233	      0.00000000	     47.57290754	     17.52166807	     -0.00000000
      3.52000000	      0.00000000	     -0.01496953	     86.09439915	     18.80637703	     14.90077618	    -26.40137241	     43.25348379	     18.14152092	      0.00000000	     46.98721097	     17.93824273	     -0.00000000
      3.52500000	      0.00000000	     -0.01596834	     85.70115395	     19.54565698	     15.24681093	    -26.03822199	     42.71187327	     18.57085121	      0.00000000	     46.45430800	     18.37134888	     -0.00000000
      3.53000000	      0.00000000	     -0.01702016	     85.30258537	     20.29534422	     15.59792959	    -25.66897732	     42.17699566	     19.00722028	      0.00000000	     46.10237092	     18.77085326	     -0.00000000
      3.53500000	      0.00000000	     -0.01804106	     84.92939054	     20.99766790	     15.92705844	    -25.23052663	     41.56866366	     19.42321624	      0.00000000	     45.63366459	     19.24405935	     -0.00000000
      3.54000000	      0.00000000	     -0.01908664	     84.55973980	     21.69366671	     16.25340651	    -24.78647090	     41.26484318	     20.05788227	      0.00000000	     45.16777794	     19.91974557	     -0.00000000
      3.54500000	      0.00000000	     -0.02099965	     83.91255799	     22.91303878	     16.82559677	    -24.49286145	     40.75880325	     20.50601690	      0.00000000	     44.54119863	     20.31710172	     -0.00000000
      3.55000000	      0.00000000	     -0.02203773	     83.57543471	     23.54863441	     17.12406912	    -24.04552222	     40.14199180	     20.93112559	      0.00000000	     44.24153412	     20.76054412	     -0.00000000
      3.55500000	      0.00000000	     -0.02301341	     83.26668599	     24.13098115	     17.39766714	    -23.60562929	     39.62582691	     21.41189211	      0.00000000	     43.61218809	     21.18428755	     -0.00000000
      3.56000000	      0.00000000	     -0.02495173	     82.67447927	     25.24863128	     17.92311055	    -23.30198100	     39.18078303	     21.76644031	      0.00000000	     43.11862824	     21.64909378	     -0.00000000
      3.56500000	      0.00000000	     -0.02630210	     82.27697182	     25.99931654	     18.27628836	    -22.89704422	     38.67212394	     22.25296534	      0.00000000	     42.67487317	     22.03133603	     -0.00000000
      3.57000000	      0.00000000	     -0.02818269	     81.74179664	     27.01059622	     18.75239286	    -22.53035102	     38.07210684	     22.68615959	      0.00000000	     42.21982391	     22.72355078	     -0.00000000
      3.57500000	      0.00000000	     -0.02919005	     81.46321041	     27.53729623	     19.00050664	    -22.07271919	     37.73568386	     23.14685017	      0.00000000	     41.76526176	     23.11723878	     -0.00000000
      3.58000000	      0.00000000	     -0.03103886	     80.96531791	     28.47909127	     19.44440918	    -21.71094068	     37.11648346	     23.57725619	      0.00000000	     41.29145663	     23.61930529	     -0.00000000
      3.58500000	      0.00000000	     -0.03319966	     80.40349745	     29.54253289	     19.94603034	    -21.38884848	     36.62211763	     24.07226348	      0.00000000	     40.68622363	     24.05205507	     -0.00000000
      3.59000000	      0.00000000	     -0.03421720	     80.14580772	     30.03055650	     20.17636422	    -20.91686008	     36.15802529	     24.47993767	      0.00000000	     40.22829944	     24.45902844	     -0.00000000
      3.59500000	      0.00000000	     -0.03606313	     79.68869790	     30.89664490	     20.58534280	    -20.55505829	     35.52081109	     24.91257225	      0.00000000	     39.73734228	     24.96878223	     -0.00000000
      3.60000000	      0.00000000	     -0.03822021	     79.17021881	     31.87961975	     21.04983856	    -20.14509670	     34.94671102	     25.40615387	      0.00000000	     39.37034547	     25.41533690	     -0.00000000
      3.60500000	      0.00000000	     -0.04009439	     78.73233502	     32.71029920	     21.44263422	    -19.77765147	     34.61808048	     25.87633070	      0.00000000	     38.74147565	     25.86473931	     -0.00000000
      3.61000000	      0.00000000	     -0.04225646	     78.24055340	     33.64377346	     21.88432686	    -19.42726154	     33.99243229	     26.32742464	      0.00000000	     38.31721808	     26.27019554	     -0.00000000
      3.61500000	      0.00000000	     -0.04410666	     77.83023736	     34.42305772	     22.25329508	    -19.06585698	     33.32986717	     26.76395705	      0.00000000	     37.80382988	     26.78951950	     -0.00000000
